<?xml version="1.0" standalone="no"?><!DOCTYPE svg PUBLIC "-//W3C//DTD SVG 1.1//EN" "http://www.w3.org/Graphics/SVG/1.1/DTD/svg11.dtd"><svg t="1659255631568" class="icon" viewBox="0 0 1024 1024" version="1.1" xmlns="http://www.w3.org/2000/svg" p-id="3404" xmlns:xlink="http://www.w3.org/1999/xlink" width="200" height="200"><defs><style type="text/css">@font-face { font-family: "feedback-iconfont"; src: url("//at.alicdn.com/t/font_1031158_u69w8yhxdu.woff2?t=1630033759944") format("woff2"), url("//at.alicdn.com/t/font_1031158_u69w8yhxdu.woff?t=1630033759944") format("woff"), url("//at.alicdn.com/t/font_1031158_u69w8yhxdu.ttf?t=1630033759944") format("truetype"); }
</style></defs><path d="M480 422.4l64 0 0-128 147.2 0L537.6 134.4C524.8 128 499.2 128 486.4 134.4L332.8 294.4l147.2 0L480 422.4z" p-id="3405"></path><path d="M422.4 480l-128 0L294.4 332.8 134.4 486.4C128 499.2 128 524.8 134.4 537.6l160 160L294.4 544l128 0L422.4 480z" p-id="3406"></path><path d="M889.6 486.4l-160-160 0 147.2-128 0 0 64 128 0 0 147.2 160-160C896 524.8 896 499.2 889.6 486.4z" p-id="3407"></path><path d="M544 601.6l-64 0 0 128L332.8 729.6l160 160c12.8 12.8 32 12.8 44.8 0l160-160L544 729.6 544 601.6z" p-id="3408"></path></svg>