<?xml version="1.0" standalone="no"?><!DOCTYPE svg PUBLIC "-//W3C//DTD SVG 1.1//EN" "http://www.w3.org/Graphics/SVG/1.1/DTD/svg11.dtd"><svg t="1666777080944" class="icon" viewBox="0 0 1024 1024" version="1.1" xmlns="http://www.w3.org/2000/svg" p-id="13450" xmlns:xlink="http://www.w3.org/1999/xlink" width="200" height="200"><path d="M512 992C248 992 32 776 32 512S248 32 512 32s480 216 480 480-216 480-480 480z m0-896C283.2 96 96 283.2 96 512s187.2 416 416 416 416-187.2 416-416S740.8 96 512 96z" p-id="13451" fill="#000000"></path><path d="M512 272m-32 0a32 32 0 1 0 64 0 32 32 0 1 0-64 0Z" p-id="13452" fill="#000000"></path><path d="M512 368c-17.6 0-32 14.4-32 32v352c0 17.6 14.4 32 32 32s32-14.4 32-32V400c0-17.6-14.4-32-32-32z" p-id="13453" fill="#000000"></path></svg>