<?xml version="1.0" standalone="no"?><!DOCTYPE svg PUBLIC "-//W3C//DTD SVG 1.1//EN" "http://www.w3.org/Graphics/SVG/1.1/DTD/svg11.dtd"><svg t="1666776958004" class="icon" viewBox="0 0 1024 1024" version="1.1" xmlns="http://www.w3.org/2000/svg" p-id="8712" xmlns:xlink="http://www.w3.org/1999/xlink" width="200" height="200"><path d="M299.975111 411.875556h285.582222a24.462222 24.462222 0 0 1 0 48.981333h-285.582222a24.462222 24.462222 0 0 1 0-48.924445z m-118.897778-0.682667c13.368889 0 24.291556 10.865778 24.291556 24.348444v0.625778a24.348444 24.348444 0 1 1-48.696889 0v-0.625778c0-13.482667 10.922667-24.348444 24.348444-24.348444z m0 145.464889c13.368889 0 24.291556 10.922667 24.291556 24.348444v0.682667a24.348444 24.348444 0 0 1-48.696889 0v-0.682667c0-13.425778 10.922667-24.348444 24.348444-24.348444zM773.347556 113.777778H113.777778a56.888889 56.888889 0 0 0-56.888889 56.888889v591.132444a56.888889 56.888889 0 0 0 56.888889 56.888889h347.648V967.111111l120.035555-13.767111L967.111111 581.006222l-136.817778-136.647111V170.666667a56.888889 56.888889 0 0 0-56.888889-56.888889z m7.566222 49.948444v94.321778H105.472V163.726222h675.498667zM105.472 308.053333h675.271111V481.28l-302.08 296.789333v-1.422222h-373.191111V308.053333z m462.165333 601.315556L512 917.617778v-98.986667l312.718222-311.751111 79.075556 78.506667-336.213334 324.039111zM301.226667 557.112889h285.582222a24.462222 24.462222 0 1 1 0 48.981333h-285.582222a24.462222 24.462222 0 0 1 0-48.924444z" fill="#000000" p-id="8713"></path></svg>