<?xml version="1.0" standalone="no"?><!DOCTYPE svg PUBLIC "-//W3C//DTD SVG 1.1//EN" "http://www.w3.org/Graphics/SVG/1.1/DTD/svg11.dtd"><svg t="1665304072512" class="icon" viewBox="0 0 1024 1024" version="1.1" xmlns="http://www.w3.org/2000/svg" p-id="4794" xmlns:xlink="http://www.w3.org/1999/xlink" width="200" height="200"><path d="M921.729 597.727c0.61-9.166 0.925-18.413 0.925-27.733 0-167.482-99.999-311.59-243.514-375.82 1.063-7.672 1.625-15.505 1.625-23.47 0-93.589-75.828-169.465-169.353-169.465-93.533 0-169.357 75.876-169.357 169.465 0 7.96 0.561 15.787 1.622 23.455-143.536 64.223-243.56 208.339-243.56 375.835 0 9.33 0.317 18.586 0.927 27.761C43.342 624.764 3.364 683.366 3.364 751.32c0 93.593 75.816 169.465 169.349 169.465 32.198 0 62.297-8.994 87.926-24.607 69.409 53.495 156.367 85.313 250.753 85.313 94.469 0 181.494-31.874 250.93-85.453 25.598 15.547 55.644 24.499 87.781 24.499 93.521 0 169.337-75.812 169.337-169.333C1019.44 683.28 979.446 624.71 921.729 597.727zM511.412 73.811c53.232 0 96.407 42.987 96.749 96.142 0.001 0.212 0.008 0.423 0.008 0.635 0 26.297-10.491 50.139-27.511 67.58-17.57 18.005-42.099 29.189-69.246 29.189-27.146 0-51.675-11.184-69.247-29.189-17.021-17.441-27.514-41.283-27.514-67.58 0-0.215 0.007-0.429 0.008-0.644C415.005 116.794 458.186 73.811 511.412 73.811zM172.713 848.413c-53.441 0-96.765-43.417-96.765-96.985 0-31.23 14.732-59.008 37.606-76.746 16.358-12.685 36.878-20.239 59.16-20.239 3.668 0 7.287 0.212 10.849 0.61 48.336 5.405 85.917 46.487 85.917 96.374 0 15.868-3.802 30.844-10.542 44.066-11.367 22.3-31.092 39.605-55.037 47.77C194.114 846.601 183.625 848.413 172.713 848.413zM511.412 908.454c-73.713 0-141.914-23.561-197.514-63.545 17.787-26.818 28.157-58.989 28.157-93.588 0-93.505-75.682-169.318-169.091-169.454-0.141-4.018-0.238-8.047-0.238-12.1 0-136.172 80.372-253.556 196.256-307.352 30.145 46.776 82.671 77.751 142.431 77.751 59.754 0 112.281-30.975 142.426-77.751 115.881 53.796 196.253 171.18 196.253 307.352 0 4.052-0.097 8.082-0.238 12.1-93.406 0.135-169.087 75.893-169.087 169.338 0 34.627 10.402 66.82 28.24 93.642C653.391 884.867 585.159 908.454 511.412 908.454zM850.083 848.409c-10.915 0-21.407-1.814-31.195-5.154-23.93-8.166-43.647-25.465-55.013-47.754-6.744-13.225-10.549-28.205-10.549-44.077 0-49.89 37.593-90.976 85.929-96.373 3.556-0.397 7.167-0.608 10.828-0.608 22.274 0 42.787 7.548 59.141 20.225 22.883 17.737 37.621 45.52 37.621 76.756C946.844 804.988 903.523 848.409 850.083 848.409z" p-id="4795" fill="#000000"></path></svg>