<?xml version="1.0" standalone="no"?><!DOCTYPE svg PUBLIC "-//W3C//DTD SVG 1.1//EN" "http://www.w3.org/Graphics/SVG/1.1/DTD/svg11.dtd"><svg t="1666777030404" class="icon" viewBox="0 0 1024 1024" version="1.1" xmlns="http://www.w3.org/2000/svg" p-id="11558" xmlns:xlink="http://www.w3.org/1999/xlink" width="200" height="200"><path d="M512.449422 1023.999545a511.544662 511.544662 0 1 1 424.618478-227.555455 34.133318 34.133318 0 0 1-56.888863-38.229316A443.733136 443.733136 0 1 0 512.449422 955.732909a437.361583 437.361583 0 0 0 182.044364-39.59465 34.133318 34.133318 0 0 1 28.216876 62.350195 511.089551 511.089551 0 0 1-210.26124 45.511091z" fill="#000000" p-id="11559"></path><path d="M290.81041 781.42543a45.511091 45.511091 0 0 1-30.947542-12.743105 45.511091 45.511091 0 0 1-10.467551-45.511091l91.022182-267.605214A182.044364 182.044364 0 0 1 452.829893 341.333182l265.784771-96.028402a45.511091 45.511091 0 0 1 45.511091 9.557329 45.511091 45.511091 0 0 1 11.377773 45.511091l-91.022182 268.060325a184.319918 184.319918 0 0 1-114.232838 116.053282l-264.419438 94.663069a57.343975 57.343975 0 0 1-15.01866 2.275554z m-9.102219-45.51109z m413.695817-409.599818l-219.363458 79.189298a116.053282 116.053282 0 0 0-70.997302 71.907523l-75.0933 220.728791 219.818569-77.368854A115.14306 115.14306 0 0 0 621.67604 546.133091z" fill="#000000" p-id="11560"></path></svg>