<?xml version="1.0" standalone="no"?><!DOCTYPE svg PUBLIC "-//W3C//DTD SVG 1.1//EN" "http://www.w3.org/Graphics/SVG/1.1/DTD/svg11.dtd"><svg t="1666777419774" class="icon" viewBox="0 0 1024 1024" version="1.1" xmlns="http://www.w3.org/2000/svg" p-id="15124" xmlns:xlink="http://www.w3.org/1999/xlink" width="200" height="200"><path d="M800 938.666667h-576C147.2 938.666667 85.333333 876.8 85.333333 800v-576C85.333333 147.2 147.2 85.333333 224 85.333333h573.866667c76.8 0 138.666667 61.866667 138.666666 138.666667v573.866667c2.133333 78.933333-59.733333 140.8-136.533333 140.8z m-576-789.333334C183.466667 149.333333 149.333333 183.466667 149.333333 224v573.866667c0 40.533333 34.133333 74.666667 74.666667 74.666666h573.866667c40.533333 0 74.666667-34.133333 74.666666-74.666666V224C874.666667 183.466667 840.533333 149.333333 800 149.333333h-576z" p-id="15125" fill="#000000"></path></svg>