<?xml version="1.0" standalone="no"?><!DOCTYPE svg PUBLIC "-//W3C//DTD SVG 1.1//EN" "http://www.w3.org/Graphics/SVG/1.1/DTD/svg11.dtd"><svg t="1659939965241" class="icon" viewBox="0 0 1024 1024" version="1.1" xmlns="http://www.w3.org/2000/svg" p-id="6685" xmlns:xlink="http://www.w3.org/1999/xlink" width="200" height="200"><defs><style type="text/css">@font-face { font-family: "feedback-iconfont"; src: url("//at.alicdn.com/t/font_1031158_u69w8yhxdu.woff2?t=1630033759944") format("woff2"), url("//at.alicdn.com/t/font_1031158_u69w8yhxdu.woff?t=1630033759944") format("woff"), url("//at.alicdn.com/t/font_1031158_u69w8yhxdu.ttf?t=1630033759944") format("truetype"); }
</style></defs><path d="M209.91781197 877.42249572c-61.57565812 0-111.66851282-50.09394872-111.66851282-111.66960683V596.06536752c0-15.71774359 12.78796582-28.50570941 28.49914529-28.5057094s28.50023931 12.78905983 28.50023932 28.5057094v162.87070086c0 40.90092308 20.5565812 61.48594872 61.45312821 61.48594872h590.55699145c40.9020171 0 61.48704274-20.58502564 61.48704273-61.48594872V596.06536752c0-15.71774359 12.78249572-28.4991453 28.49914531-28.49914529s28.4991453 12.78140171 28.49914529 28.49914529v169.34618804c0 61.76054701-50.24382906 112.00547008-112.00437606 112.00547008H209.92z" fill="#2C2C2C" p-id="6686"></path><path d="M512 646.4a28.53305983 28.53305983 0 0 1-28.4991453-28.50023931V127.43111111a28.53305983 28.53305983 0 0 1 28.4991453-28.49914529 28.53305983 28.53305983 0 0 1 28.4991453 28.49914529v490.47302564A28.52758974 28.52758974 0 0 1 512 646.39890598z" fill="#2C2C2C" p-id="6687"></path><path d="M509.5745641 661.74687179a28.31535043 28.31535043 0 0 1-20.1539829-8.34625641L286.36553846 450.33025641a28.31535043 28.31535043 0 0 1-8.34625641-20.1539829c0-7.61217094 2.96916239-14.77032479 8.35172649-20.15398292s12.54181197-8.34625641 20.15398292-8.34625641 14.77032479 2.96369231 20.1539829 8.35172651l182.90652992 182.91309401 187.75849572-187.76396581a28.27596582 28.27596582 0 0 1 19.95705983-8.16574359c7.69641026 0 14.91145299 3.01948718 20.31042735 8.50270085 10.86140171 11.02878633 10.86140171 28.97504274 0 40.01039316L529.73948718 653.3951453a28.34270085 28.34270085 0 0 1-20.16492308 8.35172649z" fill="#2C2C2C" p-id="6688"></path></svg>