<?xml version="1.0" standalone="no"?><!DOCTYPE svg PUBLIC "-//W3C//DTD SVG 1.1//EN" "http://www.w3.org/Graphics/SVG/1.1/DTD/svg11.dtd"><svg t="1661327565865" class="icon" viewBox="0 0 1024 1024" version="1.1" xmlns="http://www.w3.org/2000/svg" p-id="3187" xmlns:xlink="http://www.w3.org/1999/xlink" width="200" height="200"><defs><style type="text/css">@font-face { font-family: "feedback-iconfont"; src: url("//at.alicdn.com/t/font_1031158_u69w8yhxdu.woff2?t=1630033759944") format("woff2"), url("//at.alicdn.com/t/font_1031158_u69w8yhxdu.woff?t=1630033759944") format("woff"), url("//at.alicdn.com/t/font_1031158_u69w8yhxdu.ttf?t=1630033759944") format("truetype"); }
</style></defs><path d="M886 190.1H438.4L342 132.2c-6.6-4-14.2-6.1-22-6.1H135.1c-51.8 0-93.9 42.1-93.9 93.9v580.3c0 51.8 42.1 93.9 93.9 93.9H886c51.8 0 93.9-42.1 93.9-93.9V284c0-51.8-42.1-93.9-93.9-93.9z m-750.9 21.3h173.1l96.5 57.9c6.6 4 14.2 6.1 22 6.1H886c4.7 0 8.5 3.8 8.5 8.5v36h-768V220c0.1-4.7 3.9-8.6 8.6-8.6zM886 808.8H135.1c-4.7 0-8.5-3.8-8.5-8.5v-395h768v395c0 4.6-3.9 8.5-8.6 8.5z" fill="#000000" p-id="3188"></path></svg>