<?xml version="1.0" standalone="no"?><!DOCTYPE svg PUBLIC "-//W3C//DTD SVG 1.1//EN" "http://www.w3.org/Graphics/SVG/1.1/DTD/svg11.dtd"><svg t="1658398206132" class="icon" viewBox="0 0 1024 1024" version="1.1" xmlns="http://www.w3.org/2000/svg" p-id="4213" xmlns:xlink="http://www.w3.org/1999/xlink" width="1024" height="1024"><defs><style type="text/css"></style></defs><path d="M960 160c0-53.02-42.98-96-96-96h-96c-17.673 0-32 14.327-32 32 0 17.496 14.042 31.713 31.47 31.996l0.53 0.004h96c17.496 0 31.713 14.042 32 31.47V864c0 17.496-14.042 31.713-31.47 32H160c-17.496 0-31.713-14.042-32-31.47V160c0-17.496 14.042-31.713 31.47-32H256l0.53-0.004C273.957 127.713 288 113.496 288 96s-14.042-31.713-31.47-32H160c-53.02 0-96 42.98-96 96v704c0 53.02 42.98 96 96 96h704c53.02 0 96-42.98 96-96V160zM726.744 480.116c12.308 12.436 12.328 32.418 0.139 44.88l-0.373 0.375-182.628 180.745-0.569 0.554c-18.688 17.908-48.251 17.754-66.754-0.351l-0.558-0.554-0.147-0.152-178.6-180.478-0.369-0.38c-11.938-12.46-11.833-32.169 0.237-44.503l0.37-0.371 0.379-0.37c12.461-11.938 32.169-11.833 44.503 0.237l0.372 0.37L480 618.816V96c0-17.496 13.571-31.717 31-32h1c17.496 0 31.717 14.571 32 32v519.956l137.49-136.074 0.38-0.37c12.586-12.059 32.567-11.831 44.874 0.604z" fill="#dddddd" p-id="4214"></path></svg>