<?xml version="1.0" standalone="no"?><!DOCTYPE svg PUBLIC "-//W3C//DTD SVG 1.1//EN" "http://www.w3.org/Graphics/SVG/1.1/DTD/svg11.dtd"><svg t="1659227972725" class="icon" viewBox="0 0 1024 1024" version="1.1" xmlns="http://www.w3.org/2000/svg" p-id="2265" xmlns:xlink="http://www.w3.org/1999/xlink" width="1024" height="1024"><defs><style type="text/css"></style></defs><path d="M512 0q18.005333 0 30.336 12.330667l150.656 150.997333q12.672 12.672 12.672 30.336t-12.501333 30.165333-30.165333 12.501333-30.336-12.672l-77.994667-77.994667 0 323.669333 323.669333 0-77.994667-77.994667q-12.672-12.672-12.672-30.336t12.501333-30.165333 30.165333-12.501333 30.336 12.672l150.997333 150.656q12.330667 12.330667 12.330667 30.336t-12.330667 29.994667l-150.997333 150.997333q-12.672 12.672-30.336 12.672t-30.165333-12.501333-12.501333-30.165333 12.672-30.336l77.994667-77.994667-323.669333 0 0 323.669333 77.994667-77.994667q12.672-12.672 30.336-12.672t30.165333 12.501333 12.501333 30.165333-12.672 30.336l-150.656 150.997333q-12.330667 12.330667-30.336 12.330667-17.664 0-29.994667-12.330667l-150.997333-150.997333q-12.672-12.672-12.672-30.336t12.501333-30.165333 30.165333-12.501333 30.336 12.672l77.994667 77.994667 0-323.669333-323.669333 0 77.994667 77.994667q12.672 12.672 12.672 30.336t-12.501333 30.165333-30.165333 12.501333-30.336-12.672l-150.997333-150.656q-12.330667-12.330667-12.330667-30.336t12.330667-30.336l150.997333-150.656q12.672-12.672 30.336-12.672t30.165333 12.501333 12.501333 30.165333-12.672 30.336l-77.994667 77.994667 323.669333 0 0-323.669333-77.994667 77.994667q-12.672 12.672-30.336 12.672t-30.165333-12.501333-12.501333-30.165333 12.672-30.336l150.656-150.997333q12.330667-12.330667 30.336-12.330667z" p-id="2266" fill="#dddddd"></path></svg>